<?xml version="1.0" encoding="UTF-8" standalone="no"?>
<svg xmlns:rdf="http://www.w3.org/1999/02/22-rdf-syntax-ns#" xmlns="http://www.w3.org/2000/svg" height="557.81" viewBox="0 0 303.75 557.8125" width="303.75" version="1.1" xmlns:cc="http://creativecommons.org/ns#" xmlns:dc="http://purl.org/dc/elements/1.1/">
<path d="m90.297 553.83c-5.233-5.4252-6.2907-7.8993-8.7167-20.391-1.1516-5.9297-2.8924-12.628-3.8684-14.885-0.97598-2.257-1.7745-4.8065-1.7745-5.6656 0-0.85911-1.8467-7.0281-4.1037-13.709-4.8121-14.244-9.3528-28.8-11.247-36.053-0.7405-2.8359-2.398-8.1094-3.6834-11.719-1.9549-5.4894-10.137-31.108-12.387-38.783-0.47318-1.6142-0.31528-2.1084 0.57847-1.8105 0.67611 0.22537 4.3356 10.084 8.1321 21.908 3.7966 11.824 7.5268 23.396 8.2894 25.717 0.76264 2.3203 3.0962 10.125 5.1858 17.344 4.0026 13.828 11.876 36.948 13.041 38.293 0.37764 0.43616 0.98858-1.0404 1.3576-3.2812 4.5488-27.619 23.067-54.775 54.964-80.6 50.945-41.246 58.66-51.811 66.538-91.109 1.0141-5.0587 2.6204-11.176 3.5696-13.594 2.8451-7.2474 6.0693-39.573 4.0703-40.808-0.513-0.31705-28.124-0.85284-61.359-1.1907l-60.426-0.6142-2.7448 2.5662c-1.5097 1.4114-4.9589 4.7368-7.665 7.3897l-4.9202 4.8235-12.892 0.12322c-7.0908 0.0678-15.671 0.24107-19.066 0.38509-3.3956 0.14403-6.6564-0.0364-7.2462-0.40095-0.58985-0.36455-1.8972-0.22144-2.9052 0.31804-2.6784 1.4334-5.706 1.2077-5.706-0.4254 0-0.77344-0.63281-1.4062-1.4062-1.4062-0.77344 0-1.4062 0.39345-1.4062 0.87432 0 1.4319-3.9068 2.2638-4.6889 0.99849-0.54969-0.88943-1.4635-0.86599-4.1529 0.10652-2.939 1.0628-3.5715 1.0473-4.2835-0.10471-2.1841-3.5339-1.5826 0.33674 0.81473 5.2431 1.4884 3.0462 3.4024 8.0698 4.2533 11.164 0.85088 3.0938 2.3432 7.3125 3.3163 9.375s2.5057 6.4922 3.4058 9.8438c0.90011 3.3516 3.2764 10.945 5.2807 16.875 18.258 54.018 19.774 59.062 17.751 59.062-0.75019 0-2.9006-5.9392-15.614-43.125-2.7325-7.9922-7.5392-21.868-10.682-30.834-3.1424-8.9666-5.7134-17.031-5.7134-17.92 0-0.88965-0.76589-2.6237-1.702-3.8534-6.4125-8.44-13.276-39.94-9.6498-44.31 0.5784-0.7 1.8532-3.54 2.8328-6.32s4.7127-11.6 8.296-19.59c3.5832-7.9922 6.8451-15.586 7.2485-16.875 0.40347-1.2891 1.9303-4.9667 3.393-8.1725s3.6907-8.2683 4.9512-11.25 2.9565-6.6869 3.769-8.2338c0.81248-1.5469 1.4814-3.4453 1.4865-4.2188 0.0051-0.77344 0.88978-2.8506 1.9659-4.6158 1.0762-1.7653 2.1094-4.0029 2.2962-4.9725 0.58628-3.0443 5.1524-14.379 12.377-30.724 0.79771-1.8047 3.076-6.7195 5.0628-10.922 1.9868-4.2023 3.614-8.2101 3.6159-8.9062 0.002-0.69612 0.91708-2.7422 2.0337-4.5469s4.0243-8.5547 6.4616-15 7.27-18.891 10.739-27.656c9.494-23.988 12.873-34.209 12.224-36.973-0.31034-1.3209-0.76634-5.3548-1.0133-8.9642-0.24699-3.6094-0.6557-7.463-0.90826-8.5637-0.67112-2.9247 1.1469-15.914 2.7136-19.387 0.74089-1.6426 1.5913-3.8454 1.8898-4.8952 2.171-7.6344 19.787-11.675 26.232-6.0165 9.7541 8.5642 6.4308 24.154-5.1824 24.311-7.0622 0.0953-1.8506 24.351 8.3414 38.822 6.3307 8.9886 20.292 23.085 28.013 28.286 5.4338 3.6596 13.703 9.8482 18.054 13.512 1.2418 1.0456 2.6463 1.9012 3.121 1.9012 0.80949 0 26.769 17.086 31.457 20.704 2.8814 2.224 12.445 10.552 18.75 16.327 31.24 28.617 39.53 64.077 21.427 91.661-4.4098 6.7197-7.8181 27.045-5.85 34.887 1.0731 4.2756 15.916 0.5251 24.168-6.107 4.1232-3.3136 4.0373-3.3026 6.6614-0.85014 6.8102 6.3647 24.859 14.003 33.088 14.003 6.8919 0 3.5465 3.0272-6.2521 5.6574-11.15 2.993-18.122 5.9018-22.601 9.4295-4.4844 3.5319-5.0205 3.4693-10.788-1.2588-8.0705-6.6164-23.839-11.322-25.059-7.4775-1.8534 5.8396 2.8832 29.983 7.5029 38.244 4.0499 7.2419 7.1466 19 6.5159 24.741-1.1867 10.801-1.8181 14.102-3.953 20.665-8.8836 27.309-29.276 48.17-67.375 68.92-48.377 26.348-70.735 48.349-76.769 75.541-2.5063 11.294-1.8746 14.949 2.9816 17.251 4.822 2.2858 6.8499 5.0125 7.8972 10.618 2.3972 12.832-13.223 20.649-22.351 11.185zm11.905-8.4375c0.01-6.5506 0.30364-9.1617 0.92315-8.2031 0.49984 0.77344 0.91525 4.6758 0.92315 8.6719 0.0191 9.6958 1.6604 9.3243 2.0704-0.46875 0.35184-8.4036-0.22583-10.078-3.4768-10.078-3.0924 0-4.648 10.219-2.6759 17.578 1.2708 4.7422 2.2224 1.5503 2.236-7.5zm-4.6073 7.5c0.74032-9.1742 0.18962-17.578-1.1519-17.578-0.44972 0-0.81768 3.7969-0.81768 8.4375 0 7.052-1.619 12.622-1.9754 6.7969-0.4666-7.6263 0.37687-15.817 1.7367-16.865 2.0122-1.5507 0.99229-2.3741-3.2714-2.6407-5.4039-0.33795-5.3865-0.33287-4.4118-1.2942 0.48984-0.48307 2.7891-1.0104 5.1094-1.1719 4.8072-0.33451 5.5924-1.8632 1.4062-2.7377l-2.8125-0.58754 3.0469-0.71073c4.8998-1.143 3.5465-2.556-2.1107-2.2037-3.6728 0.22869-5.1572-0.0162-5.1562-0.85074 0.00084-0.77083 1.5253-1.1768 4.4544-1.1862 6.1089-0.0197 7.5093-0.99529 5.5152-3.8422-1.0292-1.4694-1.5093-4.0373-1.465-7.8364 0.09197-7.8847 1.6512-11.234 1.7576-3.7758 0.04416 3.0938 0.44629 6.2028 0.89366 6.909 1.3191 2.0823 2.9213-4.4455 2.156-8.784-0.97941-5.5524-0.22932-27.656 0.9385-27.656 0.6218 0 0.87489 3.2883 0.70354 9.1406-0.4263 14.56-0.0933 19.793 1.1259 17.695 0.82125-1.4137 1.2286-16.807 0.83358-31.497-0.1237-4.5993-11.005 13.606-14.523 24.299-3.897 11.844-5.79 32.802-3.7767 41.812 1.4545 6.5094 2.5434 8.9803 3.7529 8.5162 0.84527-0.32436 1.4381 0.69887 1.8634 3.2165 0.74253 4.395 5.8836 8.053 6.1787 4.3963zm-8.843-36.95c-0.89399-0.89399-0.64734-12.61 0.3125-14.844 0.53121-1.2362 0.82816 1.0795 0.87161 6.7969 0.06589 8.6715-0.01433 9.2167-1.1841 8.0469zm3.7197-0.791c-0.56566-1.4741 0.27154-25.008 0.91402-25.693 0.201-0.22 0.366 5.79 0.366 13.35 0 13.462-0.18042 15.2-1.2803 12.334zm21.337-31.231c-1.5012-0.34825-1.9769-25.478-0.48234-25.478 0.45338 0 0.99934 5.2569 1.2132 11.682 0.36893 11.082 0.89163 13.826 2.3546 12.363 0.35319-0.3532 0.57635-6.8571 0.4959-14.453-0.0937-8.8387 0.15776-13.136 0.69819-11.936 0.46446 1.0312 0.87412 6.1289 0.91035 11.328 0.0686 9.8401 0.54539 11.688 2.3715 9.1905 0.71991-0.98454 0.85293-3.1079 0.39552-6.3136-0.97268-6.8166-0.98344-21.028-0.0164-21.626 1.0391-0.64222 1.9842 7.2419 1.9946 16.64 0.006 5.4568 0.30926 7.2428 1.18 6.9509 0.8878-0.29762 1.0879-3.7254 0.82557-14.141-0.23941-9.5051-0.0311-13.748 0.67514-13.748 0.66977 0 1.1118 4.1152 1.2838 11.953 0.33991 15.485 2.1046 15.299 2.2235-0.23437 0.14168-18.509 1.9226-18.703 2.1467-0.23438 0.0654 5.3948 0.49511 9.1406 1.0484 9.1406 0.94113 0 1.4592-9.4277 1.0046-18.281-0.16734-3.259 0.0598-4.3991 0.74544-3.7413 0.54237 0.52042 1.1088 4.9501 1.2587 9.8438 0.42141 13.757 2.1332 10.153 2.2301-4.6962 0.096-14.705 0.12383-14.982 1.3236-13.125 0.49984 0.77344 0.92101 5.4141 0.93594 10.312 0.0293 9.6 0.59998 13.125 2.1249 13.125 0.65071 0 0.75292-4.6015 0.31237-14.062-0.44768-9.6137-0.34337-14.062 0.32971-14.062 0.54151 0 1.0172 1.1602 1.057 2.5781 0.4973 17.693 1.0742 21.797 3.0642 21.797 0.99381 0 1.2176-0.98573 0.90437-3.9844-0.22887-2.1914-0.7044-8.7764-1.0567-14.633l-0.64-10.66-11.72 10.02c-6.4453 5.5096-12.805 11.224-14.133 12.698-1.3279 1.4741-5.3357 5.914-8.9062 9.8665-6.3527 7.0321-8.7486 10.747-6.9305 10.747 0.53175 0 0.90729 4.4308 0.90729 10.705 0 14.448 0.23928 14.877 5.1823 9.2833 2.6907-3.0448 3.5673-4.618 2.6869-4.8222zm-5.4374-5.7133c-0.64799-10.241-0.13458-15.506 1.4183-14.547 1.0736 0.66353 1.1037 23.569 0.0318 24.232-0.44314 0.27388-1.0957-4.0844-1.4501-9.685zm44.932-28.17c-0.23557-0.38117-0.64986-6.767-0.92061-14.191-0.35886-9.8388-0.21974-13.039 0.51322-11.807 0.88348 1.4855 1.1984 5.6196 1.6766 22.014 0.10555 3.6176 0.29147 3.9241 1.8686 3.0801 1.1546-0.6179 1.6185-1.6674 1.3614-3.0799-0.21446-1.1784-0.68615-7.5929-1.0482-14.254-0.36969-6.8019-1.0775-12.25-1.6144-12.428-1.9163-0.63385-7.1572 5.1643-6.2789 6.9465 0.4488 0.91074 0.9133 6.9031 1.0322 13.316 0.23261 12.545 0.50554 13.862 2.526 12.185 0.72186-0.59908 1.1197-1.4011 0.88415-1.7823zm10.293-5.4435c2.1757-1.8796 2.4591-33.533 0.29369-32.811-0.69001 0.23001-0.98506 5.2191-0.90468 15.298 0.0797 9.9868-0.18364 14.489-0.79238 13.55-0.50141-0.77344-0.91813-6.7852-0.92603-13.359-0.012-9.9936-0.24488-11.953-1.4206-11.953-1.6847 0-1.6525-0.27597-1.4742 12.656 0.2451 17.779 1.0218 20.25 5.2242 16.62zm6.4955-5.6823c-0.0368-1.1172-0.14229-8.3903-0.23437-16.162-0.15298-12.913-0.30882-14.102-1.808-13.792-1.0267 0.21218-1.5316 1.0272-1.3493 2.1781 0.16022 1.0115 0.4546 7.7453 0.65418 14.964 0.19958 7.2188 0.3849 13.688 0.41181 14.375 0.0269 0.6875 0.57629 1.0742 1.2208 0.85938 0.64454-0.21485 1.1418-1.3047 1.1049-2.4219zm6.1228-1.221c2.861-0.99734 3.0189-1.2794 2.494-4.4531-0.30825-1.8636-0.56509-10.068-0.57076-18.232-0.007-11.455-0.27785-14.754-1.1822-14.453-0.89761 0.29957-1.0935 4.4592-0.83716 17.773 0.23167 12.031 0.0152 17.58-0.70313 18.024-0.71982 0.44489-1.0652-1.4582-1.1273-6.2108-0.26569-20.347-0.91296-26.506-2.5856-24.602-0.94114 1.0711-0.19752 33.219 0.76839 33.219 0.37919 0 2.0639-0.47915 3.7438-1.0648zm13.728-7.6531c3.5565-2.3074 8.0239-5.4031 9.9275-6.8794l3.4611-2.684 0.54995-30.775c0.32407-18.134 0.20367-30.561-0.29311-30.254-1.6767 1.0363-2.0749 7.1114-2.1875 33.373-0.063 14.695-0.30775 27.246-0.54393 27.891-1.4785 4.0348-1.8116-1.7406-1.4058-24.375 0.38685-21.58 0.25903-25.357-0.82314-24.326-0.82824 0.78941-1.2899 3.4406-1.3061 7.5-0.13124 32.979-0.5355 45.185-1.4965 45.185-0.76635 0-0.88496-5.9943-0.43594-22.031 0.58003-20.717 0.25248-24.403-1.8642-20.978-0.35807 0.57938-0.56792 10.663-0.46632 22.409 0.12322 14.244-0.1467 21.56-0.81053 21.971-1.108 0.68475-1.1135 0.55303-0.99638-23.727 0.12605-26.135-2.1949-21.933-2.8114 5.0899-0.51745 22.683-1.8521 20.729-1.8668-2.7333-0.007-9.957-0.2803-12.877-1.18-12.575-0.9035 0.30332-1.0897 4.9372-0.81294 20.234 0.25988 14.365 0.0658 19.841-0.70312 19.841-0.75383 0-1.0621-5.1697-1.0621-17.812 0-15.208-0.20559-17.812-1.4062-17.812-1.7414 0-1.6618-1.1035-1.4202 19.688 0.25477 21.931-0.65832 20.667 9.9538 13.782zm18.281-15.096c-0.48314-0.59554-0.54404-16.048-0.14447-36.655 0.64255-33.138 0.12526-46.213-1.2964-32.768-0.32449 3.069-0.95869 6.9507-1.4093 8.626-0.45065 1.6753-0.47792 3.257-0.0606 3.5149 0.41731 0.25792 0.53406 14.286 0.25946 31.173l-0.4993 30.704 1.993-1.7829c1.2607-1.1279 1.6861-2.1612 1.1577-2.8125zm4.3209-29.485c0.31236-15.545 0.81752-28.263 1.1226-28.263 0.30506-0.0001 0.44362 12.023 0.30791 26.719-0.20987 22.726-0.0453 26.719 1.1012 26.719 1.1423 0 1.3601-4.541 1.4272-29.766 0.0436-16.371 0.34509-34.038 0.67001-39.26 0.62837-10.098-0.0562-15.859-1.5955-13.426-0.4723 0.74655-0.86519 6.5253-0.87309 12.842-0.009 7.5322-0.36 11.484-1.0188 11.484-0.67237 0-0.93172-3.875-0.78454-11.722 0.21036-11.215-0.23492-14.779-1.3847-11.083-0.61855 1.9884-1.4072 34.438-1.5111 62.18-0.0962 25.658-0.16857 23.978 0.98403 22.826 0.62054-0.62054 1.1976-11.477 1.5547-29.25zm8.4863-21.62c0.32787-27.575 0.18031-42.269-0.42447-42.269-0.98897 0-2.1658 37.371-2.1658 68.777 0 13.111 0.27705 17.571 1.0438 16.804 0.72051-0.72051 1.1995-14.137 1.5464-43.312zm4.0233 29.376c1.0886-17.517 1.0214-71.846-0.0885-71.476-0.75162 0.25054-1.1727 8.8695-1.4358 29.39-0.20479 15.969-0.604 34.032-0.88715 40.139-0.40772 8.7945-0.26452 11.022 0.68845 10.707 0.80452-0.26542 1.3755-3.1685 1.723-8.7605zm5.1052-34.704c0-27.147-0.28027-36.402-1.1109-36.682-0.84062-0.28321-1.1263 7.2237-1.1742 30.855-0.0349 17.176-0.33364 34.394-0.66401 38.261-0.58515 6.8498-0.55484 6.9905 1.1742 5.4519 1.6838-1.4983 1.7749-3.443 1.7749-37.887zm4.0962-2.1434c0.2128-23.397 0.003-32.922-0.72653-32.922-0.70885 0-1.0445 6.1572-1.0859 19.922-0.033 10.957-0.39834 26.039-0.81187 33.516-0.77223 13.962-0.5534 16.342 1.2727 13.845 0.7164-0.97971 1.1477-11.946 1.3516-34.361zm2.935 26.681c0-0.67347 0.8384-2.2903 1.8631-3.593 1.682-2.1384 4.4116-11.301 3.9238-13.172-0.32546-1.2478-0.89183-16.396-0.99904-26.721-0.0642-6.1805-0.43833-9.4558-1.0379-9.0853-0.58353 0.36064-0.9375 9.21-0.9375 23.438 0 15.105-0.33742 23.067-0.99479 23.473-0.69401 0.42892-0.93034-7.0662-0.7816-24.789 0.19351-23.059-0.14826-29.051-1.4432-25.303-0.78079 2.2598-1.0971 57.906-0.32648 57.43 0.40349-0.24937 0.73362-1.0044 0.73362-1.6779zm8.5792-26.555c0.31322-7.7742-0.3564-19.506-1.1612-20.344-0.51738-0.53865-0.85545 3.9999-0.85545 11.484 0 11.185 1.6338 18.363 2.0166 8.8594zm-19.528-39.35 10.013 0.20944-0.024-2.8125c-0.0132-1.5469-0.45556-4.685-0.98302-6.9736s-1.0994-8.6167-1.271-14.062c-0.36023-11.433 0.32059-10.826-10.849-9.6831l-7.0312 0.71922-0.63735 10.312c-0.35054 5.6719-0.9309 13.467-1.2897 17.322-0.56348 6.0547-0.46766 6.8562 0.70337 5.8843 0.90639-0.75224 4.6742-1.0557 11.369-0.91569zm-9.4964-4.0808c0.3006-0.90183 2.5391-1.3947 7.3912-1.6273 8.8784-0.42563 7.821 1.3208-1.3687 2.2608-5.2756 0.53962-6.375 0.42398-6.0225-0.63352zm-0.19-5.57c0-0.53382 2.7248-0.93132 6.3281-0.92315 4.4318 0.01 5.9067 0.2867 4.9219 0.92315-1.8588 1.2012-11.25 1.2012-11.25 0zm0.18269-4.778c0.29907-0.90487 2.3146-1.4044 6.4542-1.5996 7.5709-0.35705 6.5364 1.3375-1.385 2.2685-4.503 0.52925-5.425 0.40759-5.0692-0.66887zm0.76-5.53c0-0.52653 2.5686-0.93121 5.8594-0.92315 4.129 0.0101 5.4441 0.28273 4.4531 0.92315-1.8578 1.2006-10.312 1.2006-10.312 0zm-146.54-5.25c5.9131-4.0483 6.2555-3.8113 1.8152 1.2562-3.5602 4.0631-0.992 2.8504 4.8064-2.2695 6.2861-5.5506 7.2383-7.3502 3.5122-6.6379-1.2891 0.24643-2.3438 0.0847-2.3438-0.35945 0-2.2163-11.025-0.82208-12.608 1.5945-0.8656 1.3211-2.0743 2.2199-2.6859 1.9973-0.61167-0.22254-1.9559 0.26961-2.9871 1.0937-1.0312 0.82407-0.50391 0.0107 1.1719-1.8076 1.6758-1.8182 3.0469-3.6164 3.0469-3.9959s-11.392-0.61866-25.315-0.53149l-25.315 0.15852-1.7718 2.9199c-3.1898 5.2566-3.4565 8.8578-0.6158 8.3147 1.3154-0.25146 2.3917-0.0256 2.3917 0.50182 0 1.4213 3.3877 0.27623 5.2408-1.7714 2.2237-2.4572 3.3448-2.2296 2.6502 0.53803-0.72933 2.9059 3.1358 1.3302 8.0906-3.2983 3.8452-3.5919 4.5187-3.5392 1.4455 0.11314-3.9905 4.7424-3.3427 6.5595 1.4541 4.079 1.5678-0.81075 3.5159-1.2188 4.3291-0.90671 0.88854 0.34097 2.9124-0.58487 5.0716-2.3201 3.6759-2.954 4.6743-2.712 2.2166 0.53733-1.874 2.48-1.772 3.23 0.438 3.23 1.0312 0 1.875-0.58116 1.875-1.2915 0-0.7103 0.70279-1.8705 1.5618-2.5781 1.4103-1.1619 1.4977-1.0294 0.90086 1.3663-0.60606 2.4328-0.48285 2.6017 1.4851 2.035 5.4244-1.562 5.428-1.562 4.8523-0.0617-0.71708 1.8687 0.51806 1.8718 3.1789 0.008 1.9508-1.3664 2.0836-1.3365 2.0836 0.46875 0 3.0898 3.1148 2.3506 10.023-2.3786zm203.73-2.96c3.3516-1.6579 7.9922-3.5402 10.312-4.1829l4.2188-1.1686-4.0537-0.30857c-2.2348-0.17011-4.6613 0.19569-5.4078 0.81524-0.74475 0.61809-2.9284 1.4549-4.8526 1.8595-1.9242 0.40465-4.5532 0.98408-5.8422 1.2876-1.2891 0.30354-1.8138 0.30025-1.166-0.007 2.2339-1.0607 0.35813-1.8672-3.4895-1.5003l-3.8582 0.36794 3.5537 3.1375c1.9545 1.7256 3.7646 3.0422 4.0225 2.9258 0.25781-0.11641 3.2109-1.5681 6.5625-3.226zm-265.98-2.73c2.9657-4.17 2.6007-5-2.2051-5-4.0872 0-4.7073 1.4393-2.6067 6.0496 1.4282 3.1346 1.9056 3.03 4.8118-1.0545zm219.06-4.9c5.7528-0.0611 9.4292-0.44761 8.9062-0.93622-0.48984-0.45765-21.491-1.0864-46.669-1.3971-25.178-0.31078-46.061-0.73359-46.406-0.93959-1.8733-1.1166-139.3-2.3738-140.39-1.2843-2.2951 2.2933 13.529 3.0153 88.195 4.0245 23.199 0.31356 42.254 0.64374 42.344 0.73374 0.16198 0.16134 74.979 0.00094 94.022-0.20099zm39.831-0.20103c-0.28574-0.46233-3.1313-0.83414-6.3236-0.82625-4.0081 0.01-5.3709 0.28822-4.4041 0.89941 1.774 1.1215 11.425 1.0557 10.728-0.0731zm-56.773-5.4376c0.71058-0.45009 1.0701-1.1819 0.79891-1.6263-0.27119-0.44437-0.96836-6.2923-1.5492-12.995-2.4791-28.607-2.1956-26.865-7.706-47.344-7.764-28.854-18.371-46.061-42.98-69.727-13.266-12.757-16.405-15.946-27.676-28.119-5.68-6.12-10.95-11.76-11.72-12.53-4.84-4.847-19.55-27.994-23.528-37.022-1.755-3.986-3.524-7.144-3.931-7.019-1.489 0.457-11.709 24.707-14.31 33.952-0.87032 3.0938-1.8756 6.0469-2.234 6.5625-0.35839 0.51563-2.8179 6.2109-5.4656 12.656-2.6477 6.4453-6.574 15.938-8.725 21.094-2.151 5.1562-6.8596 16.547-10.463 25.312-3.6038 8.7656-8.6445 21-11.201 27.188-4.3513 10.53-7.3678 18.03-14.14 35.156-5.6438 14.273-9.3576 23.011-12.033 28.312-1.5099 2.991-2.4227 5.4827-2.0286 5.537 0.39414 0.0544 6.5174 0.0835 13.607 0.0648 7.0898-0.0187 12.891 0.34183 12.891 0.80114 0 0.86552 7.0009 7.6792 11.638 11.327l2.6506 2.0849-0.63027-2.2663c-0.60748-2.1843-0.57766-2.2005 0.82445-0.44657 1.0822 1.3537 1.1701 1.9956 0.3432 2.5067-2.9892 1.8474 4.0686 5.1541 7.2277 3.3862 1.1348-0.63509 1.8416-0.52297 2.4045 0.38147 0.62803 1.009 1.1747 1.0471 2.5754 0.17948 1.1728-0.72647 2.9379-0.83988 5.1849-0.3331 4.22 0.95176 4.2208 0.50731 0.0075-4.1904-3.1693-3.5337-3.3391-3.6074-2.9446-1.2768 0.59018 3.4861-1.5855 2.918-5.9873-1.5637-4.0187-4.0914-5.6572-4.0124-2.4726 0.11929 2.2494 2.9184 1.0914 2.3519-3.6339-1.7776-1.4819-1.2951-2.4653-1.5325-3.6355-0.87763-1.2676 0.7094-2.2901 0.13838-4.8745-2.7223-1.7987-1.9909-3.8293-3.6199-4.5123-3.6199-0.68301 0-1.495-0.40962-1.8044-0.91027-0.83863-1.3569 18.551-1.0565 19.436 0.30118 0.52572 0.80589 0.88053 0.80803 1.4062 0.008 1.6379-2.491 13.193-1.4731 14.929 1.3151 0.87879 1.4117 3.1 4.4316 4.9361 6.7108 1.836 2.2792 3.9749 5.4433 4.753 7.0312l1.4148 2.8872 18.273 0.12263c34.808 0.23358 100.75 1.4198 101.15 1.8196 0.64169 0.6417 2.3265 0.4402 3.7248-0.44548zm24.028-13.684c0.039-7.7344 0.43421-15.922 0.87817-18.194 0.79519-4.0699 0.77374-4.1206-1.4455-3.4181-3.8758 1.227-19.596 2.0179-19.611 0.98677-0.007-0.51563-0.35203-0.40455-0.76552 0.24683-0.74192 1.1688-0.59671 7.3566 0.25821 11.003 0.24178 1.0312 0.69693 6.3047 1.0115 11.719 0.77586 13.355-0.14669 12.3 10.478 11.987l9.1252-0.26852 0.071-14.062zm-17.36 7.03c0-0.51563 2.1343-0.9375 4.7428-0.9375 2.9232 0 4.5205 0.35969 4.1634 0.9375-0.32 0.52-2.46 0.94-4.75 0.94s-4.16-0.42-4.16-0.94zm-0.48045-4.7064c-0.35066-0.56737 2.0221-0.91856 6.2064-0.91856 3.7258 0 6.5983 0.15189 6.3835 0.33754-1.0338 0.89326-12.082 1.4031-12.59 0.58102zm-0.45705-4.6686c0-0.51563 0.31641-0.96656 0.70312-1.0021 0.38672-0.0355 1.9688-0.23933 3.5156-0.4529 4.0998-0.56604 6.3627 0.63386 2.8125 1.4914-4.2426 1.0247-7.0312 1.0103-7.0312-0.0364zm-0.93878-4.9219c-0.00091-0.84271 1.5132-1.0726 5.3906-0.81849 3.889 0.25489 4.8693 0.56317 3.5169 1.106-3.0448 1.2222-8.9061 1.033-8.9075-0.2875zm-0.31-4.14c-1.5518-1.5518-0.25117-2.1875 4.4759-2.1875 2.8055 0 5.3299 0.37051 5.6098 0.82336 0.88458 1.4313-8.7196 2.7303-10.086 1.3641zm0.33965-4.9634c-2.3731-1.5008-0.44378-2.0322 4.7853-1.3181 4.1599 0.56816 4.6254 0.80363 2.6876 1.3596-3.3811 0.97006-5.8954 0.95608-7.4728-0.0415zm46.433 29.406c2.8994-1.3759 3.5297-1.3683 7.9368 0.0955 6.2122 2.0634 6.5587 1.4959 1.3348-2.1862-4.2164-2.972-4.2562-2.9795-7.1352-1.3423-1.5923 0.90548-4.2131 2.3644-5.8239 3.2419-3.8825 2.1152-0.71349 2.2795 3.6875 0.1911zm-250.04-6.95c-2.7703-5.8162-4.5373-7.1821-4.548-3.5156-0.0034 1.1602-0.84437 3.375-1.8688 4.9219-2.6581 4.01-2.4824 4.22 3.6103 4.22h5.4855l-2.6792-5.625zm9.8392 4.9219c0.63953-1.0478-9.4352-12.055-10.27-11.221-0.39431 0.39432 1.367 2.8502 3.914 5.4576 3.1609 3.2357 4.0666 4.6425 2.8532 4.4315-0.97776-0.17-1.9621 0.21824-2.1875 0.86278-0.44696 1.2782 4.9257 1.7209 5.69 0.46875zm12.807 0.12c0-0.59407-4.6188-6.1-9.1635-10.923-2.5381-2.6938-6.3653-4.2316-7.5208-3.0219-0.36271 0.37975 0.60616 1.5873 2.153 2.6835 1.5469 1.0962 4.9219 4.2008 7.5 6.8991 4.1419 4.335 7.0312 6.1277 7.0312 4.3627zm17.812-0.58c0-0.38671-1.6875-2.3906-3.75-4.4531-4.5203-4.5203-4.9214-3.5384-0.70312 1.7215 2.7968 3.4874 4.4531 4.5035 4.4531 2.7316zm25.312-0.15769c0-0.73127 0.26822-2.0286 0.59604-2.8828 0.41222-1.0742 0.16106-1.4593-0.81436-1.2486-0.77572 0.16759-3.5264-1.9101-6.1126-4.6172-4.7177-4.9381-7.6291-6.4511-6.3139-3.2812 0.3744 0.90235 0.70078 2.1494 0.7253 2.7713 0.02452 0.62186 0.35835 0.93673 0.74184 0.69972 0.7597-0.46952 6.1254 4.5832 8.3378 7.8515 1.5797 2.3337 2.8399 2.6475 2.8399 0.70732zm-50.625-0.77981c-0.000016-0.64453-1.4766-2.35-3.2812-3.79-3.8352-3.0601-4.0468-2.7563-1.1718 1.6821 2.0955 3.2351 4.4532 4.3511 4.4531 2.1078zm13.125 0.6c0-0.82743-8.7619-8.7828-9.6862-8.7946-1.2597-0.0161 7.227 9.2764 8.5144 9.3228 0.64453 0.0232 1.1719-0.21446 1.1719-0.52818zm4.688-0.19c0-0.41916-1.2656-1.9746-2.8125-3.4566s-2.8125-3.0647-2.8125-3.5172c0-1.0423-5.3783-5.6428-7.6219-6.5197-3.9046-1.5261-2.372 1.38 2.8777 5.4568 3.1042 2.4106 6.295 5.3765 7.0907 6.5909 1.409 2.16 3.278 2.98 3.278 1.45zm21.562-3.8771c0-1.3816-9.1212-11.298-10.392-11.298-2.0086 0-0.59813 2.7867 2.6576 5.2508 1.9336 1.4634 4.2845 3.6229 5.2243 4.7988 1.8476 2.3119 2.5101 2.6414 2.5101 1.2488zm166.88-31.91 3.2812-0.91415 0.10073-33.374c0.0968-32.085 0.0335-33.356-1.6406-32.918-1.2967 0.33909-1.745-0.0608-1.7557-1.5662-0.007-1.1119-0.37499-2.5907-0.81577-3.2862-1.3121-2.0705-1.8039 3.6018-1.8978 21.89-0.1184 23.058-1.1386 48.281-1.9528 48.281-0.36896 0-0.53771-3.4805-0.375-7.7344 0.94839-24.795 1.1673-67.241 0.34933-67.746-1.2046-0.74446-1.0771-3.2418-2.2858 44.777-0.43806 17.402-1.1534 31.641-1.5896 31.641-0.96631 0-0.98134 3.3814 0.18287-41.11 0.53094-20.29 0.7091-37.699 0.39592-38.685-1.4021-4.4177-2.093 0.29912-2.1768 14.86-0.14341 24.947-1.2502 58.146-2.0485 61.445-0.75189 3.1071-0.29122-59.213 0.54157-73.264 0.44481-7.5048 0.35991-7.9456-1.9411-10.078-4.0327-3.7374-4.1087-3.3089-4.221 23.786-0.0593 14.309-0.43737 28.969-0.84013 32.578-0.47402 4.2478-0.77926-5.4046-0.86541-27.367-0.0842-21.462-0.47758-34.142-1.0706-34.508-0.61002-0.37702-0.96691 5.089-1.0217 15.648-0.0741 14.269-0.73978 46.562-1.04 50.446-0.0598 0.77344-0.0423 3.832 0.039 6.7969 0.16405 5.9877 2.0227 7.5461 2.0227 1.696 0-2.0321 0.48861-3.9966 1.0858-4.3657 0.80711-0.49882 0.94429 1.513 0.53449 7.8383-0.42342 6.5356-0.26748 8.6183 0.67225 8.9789 1.2883 0.49437 2.5797-28.3 2.7754-61.882 0.0486-8.336 0.46279-15.508 0.9205-15.938 0.78312-0.73512 0.10335 70.674-0.74968 78.753-0.56935 5.3924 6.4362 7.8157 15.386 5.3222zm-0.76347-31.419c0.008-15.984 0.35053-30.117 0.76324-31.406 1.0326-3.2255 1.0851 54.234 0.0527 57.693-0.52133 1.7463-0.824-8.005-0.81591-26.286zm7.345 10.547c0.0105-9.9258 0.0476-22.688 0.0827-28.359 0.0775-12.568 0.0718-12.656-0.81865-12.656-0.39433 0-0.84677 12.34-1.0054 27.422-0.15868 15.082-0.5146 28.371-0.79093 29.531-0.36239 1.5214-0.0821 2.1094 1.0054 2.1094 1.3326 0 1.5101-2.0975 1.5269-18.047zm5.5106 11.454c1.5736-2.7999 1.9909-4.6847 1.6085-7.2656-0.28399-1.9167-0.21274-8.227 0.15832-14.023 0.63517-9.9212 0.0686-16.183-1.4639-16.179-0.37198 0.00091-0.67632 8.0567-0.67632 17.902 0 9.8451-0.31641 18.096-0.70313 18.335-0.71407 0.44148-1.3558-24.529-0.94931-36.942 0.13094-3.9987-0.15852-6.7969-0.70312-6.7969-0.57571 0-0.96095 7.1776-1.019 18.984-0.0513 10.441-0.26458 20.883-0.47397 23.203-0.68031 7.5391 0.94584 8.6106 4.2218 2.7818zm-35.991-56.043c0.46995-28.326-0.12439-37.857-1.7211-27.598-0.81845 5.2583-0.99048 57.018-0.1938 58.307 1.2926 2.0914 1.3991 0.38314 1.9149-30.708zm-3.8683-5.567c0.4405-22.696-0.4765-40.073-1.41-26.719-1.5133 21.651-1.1402 57.209 0.58098 55.375 0.15321-0.16321 0.52625-13.058 0.82897-28.656zm-3.7778 11.744c1.0857-15.99 0.94745-43.385-0.21897-43.385-0.75826 0-1.2336 7.6903-1.645 26.613-0.57037 26.234 0.54192 36.242 1.864 16.771zm-3.4926-21.886 0.63737-23.457-3.6592-2.8715c-6.157-4.8315-31.61-20.951-33.082-20.951-0.438 0-0.87246 6.0106-0.96547 13.357-0.093 7.3464-0.57096 13.759-1.0621 14.25-1.0735 1.0735-1.1296-12.894-0.0893-22.253 0.78591-7.0707-0.75405-10.601-2.6893-6.1645-0.94503 2.1662-0.95882 2.1581-0.60926-0.35579 0.33765-2.4284-1.5658-5.4123-2.425-3.8015-0.21962 0.41176-0.48155 6.4005-0.58207 13.308-0.10053 6.9079-0.37562 12.872-0.61133 13.253-0.2357 0.38138 0.19962 1.2148 0.96737 1.8519 1.2104 1.0046 1.4052 0.36456 1.4654-4.8157 0.0383-3.2858 0.42106-7.8726 0.85076-10.193 0.58686-3.169 0.74452-1.4725 0.63363 6.8178l-0.14763 11.037 10.192 10.292c12.082 12.2 11.796 12.116 11.999 3.4947 0.0882-3.7383 0.25429-7.4297 0.36909-8.2031 0.11481-0.77344 0.25359-5.3789 0.30839-10.234 0.0548-4.8555 0.3538-8.574 0.66442-8.2634 0.98195 0.98196 0.44386 33.812-0.56439 34.435-0.58988 0.36456-0.44453 1.254 0.3918 2.3978 2.1324 2.9162 2.3515 1.6989 3.0592-16.99 0.43168-11.4 0.90086-16.414 1.3114-14.014 0.35157 2.0556 0.30389 10.704-0.10595 19.219-0.75974 15.784 0.28348 21.575 3.8866 21.575 1.5448 0 2.4632-12.474 2.6787-36.383 0.0154-1.7062 0.39985-2.8724 0.85438-2.5914 0.84614 0.52293 0.60123 23.432-0.38812 36.306-0.33418 4.3487-0.18533 7.4016 0.37787 7.7497 1.6301 1.0075 1.7996-0.46322 2.5003-21.699 0.37817-11.46 1.0156-20.633 1.4165-20.386 0.40092 0.24779 0.59205 5.8272 0.42472 12.399-0.3969 15.588-0.68997 34.088-0.56724 35.808 0.0629 0.88142 0.41785 1.0385 1.0095 0.44686 0.50677-0.50677 1.1959-11.342 1.5499-24.37zm-12.433 6.3918c0.27017-1.418 0.77092-10.066 1.1128-19.219 0.39455-10.563 0.97977-16.641 1.6024-16.641 0.66788 0 0.77705 4.5622 0.34213 14.297-0.78378 17.543-1.5122 24.141-2.6656 24.141-0.4856 0-0.66186-1.1602-0.3917-2.5781zm-10.532-19.632c0.25286-18.976 1.4363-24.602 1.6009-7.6107 0.0929 9.5892-0.21141 15.872-0.78592 16.227-0.60367 0.37309-0.89387-2.6952-0.81497-8.6165zm-3.7049-2.1647c0.0197-4.3828 0.34993-10.5 0.73378-13.594 0.58175-4.6888 0.70989-3.6745 0.76985 6.0938 0.0396 6.4453-0.29062 12.562-0.73377 13.594-0.53027 1.234-0.79345-0.84925-0.76986-6.0938zm-4.0216 2.6567c-0.76018-2.6055 0.23118-28.907 1.0896-28.907 1.1112 0 1.1751 27.16 0.068 28.907-0.66072 1.0423-0.85342 1.0423-1.1575 0zm-4.2311-16.844c0.28676-7.2872 0.69042-13.418 0.89701-13.625 0.95736-0.95735 1.5472 9.8246 0.97941 17.902-0.99665 14.179-2.4705 10.819-1.8764-4.2773zm-11.602-8.0849c0-5.5464 0.38612-11.431 0.85805-13.076 0.617-2.1514 0.52693-3.2666-0.32064-3.9701-2.0736-1.721-2.4124 0.004-2.4124 12.287 0 7.8898-0.34388 12.031-0.99903 12.031-0.6709 0-0.93265-4.5264-0.79693-13.781 0.12912-8.8045-0.14681-13.898-0.76409-14.103-1.393-0.46435-1.8924 2.7829-1.9816 12.885-0.0432 4.8984-0.0937 9.4336-0.11222 10.078-0.0185 0.64453-0.4866 1.1719-1.0402 1.1719-0.70139 0-0.80517-4.1572-0.34238-13.714 0.55574-11.476 0.45224-13.644-0.63412-13.284-0.98243 0.32528-1.4144 3.3763-1.7756 12.542l-0.47733 12.112 4.1921 4.4531c6.1739 6.5583 6.6063 6.1897 6.6063-5.6312zm-11.994-5.6188c0.68806-8.0169 0.29559-20.381-0.66215-20.859-0.59047-0.29523-1.0364 3.5169-1.2046 10.298-0.14693 5.9219-0.70919 11.195-1.2495 11.719-0.68356 0.66218-0.92036-2.8978-0.77854-11.705 0.22-14.986 0.2-15.278-1.01-14.531-0.53207 0.32884-0.9375 4.9913-0.9375 10.781 0 15.211-1.769 13.916-2.0827-1.525-0.19432-9.566-0.5745-12.957-1.4868-13.26-0.96109-0.31936-1.2019 1.6879-1.1155 9.2982 0.13776 12.133 0.14265 12.049-0.70575 12.05-0.38671 0.00047-0.70312-5.5894-0.70312-12.422 0-16.076-1.6879-17.577-2.3742-2.1102-0.57006 12.846-0.65465 12.597 7.1169 20.991 6.3781 6.8892 6.683 6.9434 7.1695 1.2748zm-16.59-38.491c-1.2701-1.2701-1.669 1.4373-1.5473 10.503 0.0771 5.7431-0.26102 10.059-0.81476 10.401-0.62 0.384-0.95-4.099-0.95-13.009 0-7.7775-0.38936-13.834-0.91001-14.156-1.5716-0.9713-2.1593 4.01-1.4871 12.604 0.39393 5.0357 0.29426 8.5033-0.25418 8.8423-1.6761 1.0359-2.159-2.6651-1.9443-14.9 0.12081-6.8834-0.15865-12.188-0.64216-12.188-0.47083 0-0.97619 4.8357-1.123 10.746-0.14852 5.9788-0.69047 11.008-1.2216 11.336-0.54538 0.33707 1.5788 3.9696 4.9544 8.4727l5.9091 7.8827 0.26168-13.02c0.14391-7.1608 0.0384-13.243-0.23438-13.516zm-11.68-20.331c-0.94839-1.9376-1.7571 4.1125-1.8471 13.819-0.0557 6.0091-0.47072 10.078-1.0279 10.078-0.59239 0-0.86582-5.9929-0.747-16.372 0.16627-14.523-0.19471-18.63-1.5203-17.3-0.87352 0.87674-0.88849 32.886-0.0157 33.498 0.50431 0.35356 1.7509 1.9085 2.7703 3.4553l1.8533 2.8125 0.49428-14.531c0.27184-7.9922 0.28986-14.949 0.04-15.459zm-6.7134-0.98132c0.10427-7.8204 0.59512-13.464 1.2643-14.535 1.5511-2.4837 0.5124-3.0337-4.0319-2.1351l-3.9593 0.78298 0.14407 9.8358c0.10779 7.3593-0.1159 9.4817-0.88847 8.4295-1.9043-2.5936-0.000937 3.7093 3.0934 10.245l2.9173 6.1612 0.64504-3.0004c0.35477-1.6502 0.72172-8.753 0.81546-15.784zm-3.899 11.21c-0.91086-0.91607-0.79111-21.865 0.13854-24.239 0.39044-0.99702 0.88813-1.4189 1.106-0.9375 0.69384 1.5332-0.51134 25.914-1.2445 25.176zm-4.29-23.761c-0.19363-2.0304-0.94334-3.9186-1.666-4.1959-1.7113-0.65668-1.8025 7.0605-0.15748 13.319l1.1565 4.3995 0.50954-4.9153c0.28025-2.7034 0.35111-6.5765 0.15748-8.607zm10.15-8.585c0-0.474-2.75-0.861-6.1-0.861-3.698 0-6.092-0.394-6.092-1.002 0-0.63102 2.2565-0.9203 6.0937-0.7812 3.3515 0.1215 6.3979-0.0833 6.7697-0.45512 1.4052-1.4052-2.0673-2.2301-7.3656-1.7497-4.6826 0.4246-5.4978 0.26948-5.4978-1.0461 0-1.318 0.74561-1.457 5.0818-0.94738 9.3819 1.1027 9.4959 0.97916 9.1528-9.9128-0.36-11.43-2.0471-12.624-2.0471-1.4494 0 9.993-1.6981 10.57-2.0699 0.70312-0.1676-4.4474-0.63745-7.0838-1.2113-6.7969-0.90578 0.45289-1.0267 1.4055-1.2862 10.133-0.18529 6.233-1.9951 3.7437-1.9951-2.7441 0-3.5113-0.35228-5.4073-0.9375-5.0456-0.51562 0.31867-0.9375 3.0609-0.9375 6.0938s-0.42188 5.7751-0.9375 6.0938c-0.54696 0.33804-0.9375-0.61526-0.9375-2.2884 0-4.657-1.638-3.2756-2.4358 2.054-0.73131 4.8857-0.79195 6.003-0.52154 9.6094 0.1505 2.007 13.27 2.3944 13.27 0.39182zm9.4994-16.798c0.14985-4.4361-0.12975-8.1766-0.63074-8.4375-0.53803-0.28024-1.0089 3.2973-1.171 8.896-0.17389 6.0085 0.0521 9.0324 0.63073 8.4375 0.49597-0.51 1.0229-4.5132 1.171-8.896zm-3.88-0.525c0-5.7357-0.33747-8.753-0.9375-8.3822-1.0322 0.63796-1.3141 15.717-0.3125 16.719 1.1687 1.1687 1.25 0.62661 1.25-8.3366zm7.8754 0.22012c-0.89-7.0599-2.26-7.6528-2.26-0.977 0 3.1109 0.26978 5.926 0.59951 6.2558 1.4852 1.4852 2.2087-0.82815 1.6508-5.2785z"/>
</svg>
